HIERARCHY
ROOT root
{
	OFFSET	0	13.1	24.9
	CHANNELS 6  Xposition Yposition Zposition Xrotation Yrotation Zrotation
	JOINT spine_1
	{
		OFFSET	0	9.99999	0
		CHANNELS 3  Xrotation Yrotation Zrotation
		JOINT spine_2
		{
			OFFSET	0	112	-10
			CHANNELS 3  Xrotation Yrotation Zrotation
			JOINT spine_3
			{
				OFFSET	0	206.5	19.3
				CHANNELS 3  Xrotation Yrotation Zrotation
				JOINT spine_4
				{
					OFFSET	0	110.4	14.6
					CHANNELS 3  Xrotation Yrotation Zrotation
					JOINT neck_1
					{
						OFFSET	0	71.8	-50.3
						CHANNELS 3  Xrotation Yrotation Zrotation
						JOINT neck_2
						{
							OFFSET	0	86.2	-25.8
							CHANNELS 3  Xrotation Yrotation Zrotation
							JOINT head_ee
							{
								OFFSET	0	179.8	-8.7
								CHANNELS 3  Xrotation Yrotation Zrotation
								End Site
								{
									OFFSET	1	0	0
								}
							}
						}
					}
					JOINT left_clavicle
					{
						OFFSET	-43.2	22.4	-70.8
						CHANNELS 3  Xrotation Yrotation Zrotation
						JOINT left_shoulder
						{
							OFFSET	-93.9	-5.79999	48.7
							CHANNELS 3  Xrotation Yrotation Zrotation
							JOINT left_elbow
							{
								OFFSET	-291.4	-30.8	15.2
								CHANNELS 3  Xrotation Yrotation Zrotation
								JOINT left_lowarm_twist
								{
									OFFSET	-110.7	-3.89999	13.6
									CHANNELS 3  Xrotation Yrotation Zrotation
									JOINT left_hand
									{
										OFFSET	-110.7	-3.89999	13.6
										CHANNELS 3  Xrotation Yrotation Zrotation
										JOINT left_ee
										{
											OFFSET	-80.8	-5.10001	12.1
											CHANNELS 3  Xrotation Yrotation Zrotation
											End Site
											{
												OFFSET	1	0	0
											}
										}
									}
								}
							}
						}
					}
					JOINT right_clavicle
					{
						OFFSET	43.2	22.4	-70.8
						CHANNELS 3  Xrotation Yrotation Zrotation
						JOINT right_shoulder
						{
							OFFSET	93.9	-5.79999	48.7
							CHANNELS 3  Xrotation Yrotation Zrotation
							JOINT right_elbow
							{
								OFFSET	291.4	-30.8	15.2
								CHANNELS 3  Xrotation Yrotation Zrotation
								JOINT right_lowarm_twist
								{
									OFFSET	110.7	-3.89999	13.6
									CHANNELS 3  Xrotation Yrotation Zrotation
									JOINT right_hand
									{
										OFFSET	110.7	-3.89999	13.6
										CHANNELS 3  Xrotation Yrotation Zrotation
										JOINT right_ee
										{
											OFFSET	80.8	-5.10001	12.1
											CHANNELS 3  Xrotation Yrotation Zrotation
											End Site
											{
												OFFSET	1	0	0
											}
										}
									}
								}
							}
						}
					}
				}
			}
		}
	}
	JOINT left_hip
	{
		OFFSET	-82.8	-127.5	0.300001
		CHANNELS 3  Xrotation Yrotation Zrotation
		JOINT left_knee
		{
			OFFSET	-28.2	-396.7	2.2
			CHANNELS 3  Xrotation Yrotation Zrotation
			JOINT left_ankle
			{
				OFFSET	-11.7	-411.3	35.4
				CHANNELS 3  Xrotation Yrotation Zrotation
				JOINT left_toes
				{
					OFFSET	0	-60	-88.6
					CHANNELS 3  Xrotation Yrotation Zrotation
					JOINT left_foot_ee
					{
						OFFSET	-22.5	-16.5	-42.2
						CHANNELS 3  Xrotation Yrotation Zrotation
						End Site
						{
							OFFSET	1	0	0
						}
					}
				}
			}
		}
	}
	JOINT right_hip
	{
		OFFSET	82.8	-127.5	0.300001
		CHANNELS 3  Xrotation Yrotation Zrotation
		JOINT right_knee
		{
			OFFSET	28.2	-396.7	2.2
			CHANNELS 3  Xrotation Yrotation Zrotation
			JOINT right_ankle
			{
				OFFSET	11.7	-411.3	35.4
				CHANNELS 3  Xrotation Yrotation Zrotation
				JOINT right_toes
				{
					OFFSET	0	-60	-88.6
					CHANNELS 3  Xrotation Yrotation Zrotation
					JOINT right_foot_ee
					{
						OFFSET	22.5	-16.5	-42.2
						CHANNELS 3  Xrotation Yrotation Zrotation
						End Site
						{
							OFFSET	1	0	0
						}
					}
				}
			}
		}
	}
}
MOTION
Frames: 8
Frame Time: 0.02
2853.38 700.004 -491.605 165.327 -63.9451 170.671 -2.04732 -0.00462593 -1.29005 -2.0464 0.077466 -1.28773 -2.04735 0.390627 -1.22951 -2.04941 0.191564 -1.27576 6.23954 2.8557 2.3427 6.25541 2.76751 2.82825 -0.0 0.0 -0.0 7.84643 3.29734 15.2068 -26.0139 -26.0778 64.4237 0.46707 -13.0277 0.0533304 80.7712 -3.92776 -8.65264 -2.33142 18.7363 -6.44332 -0.0 0.0 -0.0 11.1829 5.00567 -22.3718 -16.1841 25.7502 -43.3671 1.34011 33.5766 -0.404322 67.8618 2.52157 7.78328 2.33905 11.1531 -11.1013 0.0 0.0 0.0 30.397 -2.83292 -8.2898 -18.1878 0.312805 2.76184 34.2445 13.4503 -4.36448 35.6875 -0.0 -0.0 -0.0 0.0 -0.0 -22.6844 -15.0646 1.118 -17.6429 -0.316249 -2.67831 23.1628 12.182 3.29391 35.0608 -0.0 -0.0 0.0 0.0 0.0 
2885.49 695.259 -487.641 166.931 -63.7828 172.125 -1.88781 -0.101183 -1.41269 -1.8867 -0.0110938 -1.41626 -1.8854 0.332359 -1.37677 -1.88803 0.110776 -1.41197 7.43628 3.03253 2.34281 7.45285 2.98766 2.84435 -0.0 0.0 -0.0 8.26453 3.77598 16.0038 -25.9319 -26.7144 63.5579 0.486401 -13.5473 0.0577734 80.3438 -3.87824 -8.62903 -2.32986 18.829 -6.3867 -0.0 0.0 -0.0 11.1885 4.86691 -22.3793 -17.4288 25.033 -43.2677 1.30263 32.8321 -0.383797 67.3911 2.47425 7.74577 2.30415 10.5883 -11.1134 0.0 0.0 0.0 30.3659 -2.98641 -8.44256 -20.2837 0.292158 3.08276 34.6363 13.6408 -4.40583 36.2945 -0.0 -0.0 -0.0 0.0 -0.0 -23.212 -14.9919 1.77521 -18.1562 -0.313026 -2.757 21.7332 12.7908 3.12653 34.9163 -0.0 -0.0 0.0 0.0 0.0 
2910.19 697.725 -483.143 167.823 -62.9527 173.763 -1.80186 -0.223793 -1.63583 -1.80038 -0.119262 -1.64675 -1.79548 0.280685 -1.62704 -1.79917 0.0202389 -1.65094 7.91461 3.35394 2.68961 7.93491 3.18014 3.2677 -0.0 0.0 -0.0 8.82026 3.60472 17.0986 -24.325 -27.4979 62.3129 0.519645 -14.4357 0.0658113 80.162 -3.85724 -8.61887 -2.34376 18.8209 -6.4748 -0.0 0.0 -0.0 11.1821 4.60149 -22.3565 -19.1071 24.1158 -44.0568 1.21586 31.0593 -0.337876 66.8196 2.41721 7.69971 2.26808 10.1392 -11.0648 0.0 0.0 0.0 30.1764 -3.26149 -8.78686 -21.6869 0.271781 3.29709 35.0903 13.7481 -4.45223 36.6627 -0.0 -0.0 -0.0 0.0 -0.0 -22.9287 -14.4091 2.59229 -18.4362 -0.310971 -2.79991 20.3312 13.2719 2.95571 34.6472 -0.0 -0.0 0.0 0.0 0.0 
2925.27 704.735 -487.774 167.744 -62.8223 174.299 -1.75809 -0.338273 -1.71534 -1.75648 -0.228453 -1.73338 -1.74784 0.194076 -1.73756 -1.75204 -0.0827323 -1.74641 8.23988 3.73469 3.1196 8.26538 3.40115 3.79188 -0.0 0.0 -0.0 9.37131 3.31593 18.2031 -22.7275 -28.8784 61.0822 0.565718 -15.6552 0.0777718 79.5375 -3.78532 -8.58348 -2.22653 17.0967 -6.63236 -0.0 0.0 -0.0 11.0674 4.22378 -22.0944 -20.5331 23.1333 -44.5692 1.07309 27.9934 -0.267493 66.6769 2.40304 7.68812 2.16622 8.80088 -10.9527 0.0 0.0 0.0 28.5079 -4.84464 -8.98936 -22.5188 0.257223 3.42391 36.4014 13.6868 -4.57988 36.8125 -0.0 -0.0 -0.0 0.0 -0.0 -21.272 -13.9198 3.93667 -18.2053 -0.312681 -2.76454 18.7026 12.8161 2.73373 33.9714 -0.0 -0.0 0.0 0.0 0.0 
2954.49 710.758 -480.449 167.851 -62.7693 174.566 -1.76294 -0.434346 -1.90515 -1.76098 -0.312259 -1.92892 -1.74826 0.159617 -1.94749 -1.75352 -0.149896 -1.94826 8.30685 4.00111 3.48068 8.33702 3.51191 4.22878 -0.0 0.0 -0.0 9.56689 2.93234 18.6156 -21.6904 -29.8341 59.5967 0.59807 -16.5029 0.0867323 79.0653 -3.7312 -8.5562 -2.14381 15.8541 -6.74216 -0.0 0.0 -0.0 10.9993 4.02495 -21.94 -21.484 22.4817 -44.9557 0.97808 25.8503 -0.224467 66.5642 2.39186 7.67894 2.09422 7.84072 -10.8744 0.0 0.0 0.0 27.2865 -5.93618 -9.1421 -23.0954 0.246051 3.5117 37.3614 13.608 -4.67072 36.9107 -0.0 -0.0 -0.0 0.0 -0.0 -20.0528 -13.5457 4.86862 -18.0402 -0.313816 -2.73922 17.5081 12.4967 2.56903 33.4908 -0.0 -0.0 0.0 0.0 0.0 
2983.4 713.409 -479.72 167.73 -62.7387 174.958 -1.99712 -0.515206 -2.11362 -1.99471 -0.379699 -2.1421 -1.97759 0.153957 -2.17002 -1.98411 -0.190607 -2.16711 8.18416 4.19881 3.8017 8.21892 3.56183 4.61249 -0.0 0.0 -0.0 9.72338 2.67876 18.9446 -20.7232 -30.5795 58.2518 0.62498 -17.2025 0.0945342 78.7109 -3.69073 -8.53544 -2.07911 14.873 -6.82452 -0.0 0.0 -0.0 10.9197 3.88002 -21.7629 -22.2797 21.9339 -45.348 0.913112 24.3383 -0.196911 66.4809 2.38362 7.67214 2.03783 7.1386 -10.789 0.0 0.0 0.0 25.6808 -6.47181 -8.60799 -23.4982 0.237724 3.57295 38.0969 13.503 -4.73848 36.9802 -0.0 -0.0 -0.0 0.0 -0.0 -18.4811 -13.162 5.06951 -18.0347 -0.313852 -2.73839 16.6708 12.2725 2.45256 33.1434 -0.0 -0.0 0.0 0.0 0.0 
3003.79 712.854 -478.496 166.884 -64.1395 174.513 -1.92595 -0.584839 -2.16778 -1.92345 -0.445746 -2.20058 -1.90323 0.101204 -2.24297 -1.91016 -0.254212 -2.23082 7.18483 4.23993 4.72293 7.23481 2.90031 5.67477 -0.0 0.0 -0.0 10.4451 4.07254 20.2959 -19.1283 -31.732 55.7771 0.59257 -16.3593 0.0851766 75.8703 -3.37116 -8.36005 -2.14023 12.3635 -8.44831 -0.0 0.0 -0.0 10.5958 2.02027 -20.9955 -23.5878 21.1288 -45.8269 0.736998 20.0565 -0.130329 66.0386 2.34 7.63584 1.93289 4.99357 -10.9782 0.0 0.0 0.0 24.326 -7.73681 -7.63043 -23.7757 0.231738 3.6151 40.0866 12.3875 -4.90619 36.5688 -0.0 -0.0 -0.0 0.0 -0.0 -16.2792 -12.5499 4.67387 -28.6076 -0.0948739 -4.3438 16.2503 11.3972 2.3827 35.1078 -0.0 -0.0 0.0 0.0 0.0 
3019.74 711.356 -479.431 166.514 -65.1081 173.952 -1.82534 -0.673333 -2.31839 -1.82251 -0.524486 -2.35651 -1.79741 0.0581158 -2.41344 -1.80539 -0.32366 -2.39236 6.35366 4.0063 5.16272 6.41459 2.20091 6.1512 -0.0 0.0 -0.0 10.9855 4.29783 21.3665 -17.8738 -32.6328 54.1063 0.655526 -17.9902 0.103768 73.8762 -3.15219 -8.22759 -2.1412 10.0077 -9.61555 -0.0 0.0 -0.0 10.3791 0.709475 -20.4775 -24.4964 20.567 -46.0653 0.619493 17.0603 -0.0929177 65.7163 2.3084 7.60919 1.82768 3.06086 -11.0609 0.0 0.0 0.0 23.1896 -8.56156 -6.87518 -23.7679 0.231908 3.61392 41.3356 11.6204 -5.00659 36.2877 -0.0 -0.0 -0.0 0.0 -0.0 -13.8851 -11.8298 4.84806 -35.9896 0.231534 -5.4287 15.2902 10.3918 2.23875 36.0283 -0.0 -0.0 0.0 0.0 0.0 
